HIERARCHY
ROOT Hips
{
	OFFSET	0.00	0.00	0.00
	CHANNELS 6 Xposition Yposition Zposition Zrotation Xrotation Yrotation
	JOINT LeftHip
	{
		OFFSET	 3.430000	 0.000000	 0.000000
		CHANNELS 3 Zrotation Xrotation Yrotation
		JOINT LeftKnee
		{
			OFFSET	 0.000000	-18.469999	 0.000000
			CHANNELS 3 Zrotation Xrotation Yrotation
			JOINT LeftAnkle
			{
				OFFSET	 0.000000	-17.950001	 0.000000
				CHANNELS 3 Zrotation Xrotation Yrotation
				End Site 
				{
					OFFSET	 0.000000	-3.119996	 0.000000
				}
			}
		}
	}
	JOINT RightHip
	{
		OFFSET	-3.430000	 0.000000	 0.000000
		CHANNELS 3 Zrotation Xrotation Yrotation
		JOINT RightKnee
		{
			OFFSET	 0.000000	-18.809999	 0.000000
			CHANNELS 3 Zrotation Xrotation Yrotation
			JOINT RightAnkle
			{
				OFFSET	 0.000000	-17.570000	 0.000000
				CHANNELS 3 Zrotation Xrotation Yrotation
				End Site 
				{
					OFFSET	 0.000000	-3.250000	 0.000000
				}
			}
		}
	}
	JOINT Chest
	{
		OFFSET	 0.000000	 4.570000	 0.000000
		CHANNELS 3 Zrotation Xrotation Yrotation
		JOINT LeftCollar
		{
			OFFSET	 1.060000	 15.330000	 1.760000
			CHANNELS 3 Zrotation Xrotation Yrotation
			JOINT LeftShoulder
			{
				OFFSET	 5.810000	 0.000000	 0.000000
				CHANNELS 3 Zrotation Xrotation Yrotation
				JOINT LeftElbow
				{
					OFFSET	 0.000000	-12.080000	 0.000000
					CHANNELS 3 Zrotation Xrotation Yrotation
					JOINT LeftWrist
					{
						OFFSET	 0.000000	-9.820000	 0.000000
						CHANNELS 3 Zrotation Xrotation Yrotation
						End Site 
						{
							OFFSET	 0.000000	-7.369996	 0.000000
						}
					}
				}
			}
		}
		JOINT RightCollar
		{
			OFFSET	-1.060000	 15.330000	 1.760000
			CHANNELS 3 Zrotation Xrotation Yrotation
			JOINT RightShoulder
			{
				OFFSET	-6.060000	 0.000000	 0.000000
				CHANNELS 3 Zrotation Xrotation Yrotation
				JOINT RightElbow
				{
					OFFSET	 0.000000	-11.900000	 0.000000
					CHANNELS 3 Zrotation Xrotation Yrotation
					JOINT RightWrist
					{
						OFFSET	 0.000000	-9.520000	 0.000000
						CHANNELS 3 Zrotation Xrotation Yrotation
						End Site 
						{
							OFFSET	 0.000000	-7.140012	 0.000000
						}
					}
				}
			}
		}
		JOINT Neck
		{
			OFFSET	 0.000000	 17.620001	 0.000000
			CHANNELS 3 Zrotation Xrotation Yrotation
			JOINT Head
			{
				OFFSET	 0.000000	 5.190000	 0.000000
				CHANNELS 3 Zrotation Xrotation Yrotation
				End Site 
				{
					OFFSET	 0.000000	 4.140008	 0.000000
				}
			}
		}
	}
}
MOTION
Frames:     31
Frame Time: 0.033333
 61.75	 37.25	-83.62	 29.21	-34.28	-160.17	 50.72	-71.64	 49.24	-6.19	 41.66	 6.75	-3.84	-1.47	 1.82	-13.66	-24.68	-5.80	 13.16	 17.15	-16.13	-7.27	 11.06	 4.29	-30.99	 44.57	 6.09	 8.81	 0.00	-15.48	 77.63	-22.62	 45.93	 1.27	-22.99	 21.30	 0.00	 0.00	 0.00	 1.35	 0.00	-3.76	-177.15	-29.79	-120.49	-1.58	-20.56	-24.01	 0.00	 0.00	 0.00	-9.73	 26.27	 0.00	-46.13	-63.35	-18.05	
 61.46	 39.13	-86.79	 42.96	-38.90	-148.12	 62.64	-73.60	 61.66	-0.83	 36.43	-3.88	-3.84	-0.14	 1.91	-9.36	-14.77	-2.41	 13.12	 2.91	-9.78	-7.48	 17.43	 5.14	-41.08	 38.75	 10.44	 4.76	 0.00	-13.23	 72.30	-12.72	 35.94	 1.42	-22.42	 22.28	 0.00	 0.00	 0.00	 18.62	 0.00	-4.31	 161.31	-25.58	-112.27	 0.58	-38.79	-22.54	 0.00	 0.00	 0.00	-10.94	 25.67	 0.00	-35.98	-63.04	-13.07	
 60.88	 40.39	-89.90	 56.76	-38.94	-137.03	 74.88	-74.35	 74.33	 4.84	 32.73	-13.35	-3.84	 0.06	 1.92	-5.53	-4.76	-0.46	 13.26	 3.68	-6.88	-7.58	 19.70	 5.45	-48.18	 32.27	 11.40	 0.71	 0.00	-8.10	 71.58	-1.75	 35.32	 0.51	-21.13	 21.31	 0.00	 0.00	 0.00	 30.30	 0.00	-6.85	 148.98	-21.71	-112.40	 1.37	-58.65	-21.78	 0.00	 0.00	 0.00	-11.83	 24.71	 0.00	-28.33	-61.77	-10.70	
 60.07	 41.35	-92.46	 67.66	-34.89	-130.12	 79.87	-73.12	 79.42	 10.08	 27.62	-21.11	-3.84	 0.54	 1.95	-3.93	 6.22	 0.43	 14.30	 15.37	-3.85	-7.58	 19.57	 5.44	-53.06	 25.86	 16.23	-2.06	 0.00	-4.61	 71.47	 8.97	 46.20	-0.87	-19.15	 19.28	 0.00	 0.00	 0.00	 30.16	 0.00	-13.24	 149.22	-17.75	-116.95	 0.38	-74.91	-22.56	 0.00	 0.00	 0.00	-11.96	 23.60	 0.00	-24.48	-60.35	-11.68	
 59.08	 42.48	-94.28	 76.36	-28.78	-126.53	 77.48	-70.33	 76.73	 12.73	 18.00	-26.80	-3.85	 4.69	 2.23	-5.83	 17.42	 1.75	 13.03	 26.70	-1.29	-7.62	 20.53	 5.57	-55.16	 19.57	 24.65	-3.73	 0.00	-3.30	 68.97	 16.84	 64.34	-1.16	-17.30	 19.83	 0.00	 0.00	 0.00	 12.72	 0.00	-18.95	 169.18	-19.82	-120.84	-7.84	-86.74	-29.89	 0.00	 0.00	 0.00	-11.66	 22.33	 0.00	-23.20	-59.19	-14.83	
 57.97	 43.99	-95.42	 84.59	-21.94	-123.51	 71.66	-67.03	 70.20	 11.28	 4.29	-29.23	-3.96	 14.29	 2.90	-10.91	 26.39	 4.90	 8.37	 31.53	 2.69	-7.71	 22.20	 5.81	-54.12	 14.26	 31.75	-5.24	 0.00	-2.31	 65.93	 19.25	 80.08	-0.02	-16.21	 24.43	 0.00	 0.00	 0.00	-10.57	 0.00	-15.84	-147.40	-32.29	-103.56	-175.29	-85.34	 163.51	 0.00	 0.00	 0.00	-11.15	 20.81	 0.00	-23.34	-58.17	-19.14	
 56.75	 45.81	-96.10	 93.32	-14.90	-118.80	 65.18	-65.21	 63.00	 7.42	-7.77	-26.79	-4.21	 24.19	 3.64	-16.03	 30.53	 8.31	 3.10	 31.60	 6.89	-7.65	 21.03	 5.64	-50.37	 11.20	 33.21	-6.77	 0.00	-1.35	 64.24	 16.98	 87.91	 1.04	-15.74	 28.44	 0.00	 0.00	 0.00	-24.72	 0.00	-8.36	-110.62	-24.66	-75.69	-179.68	-80.93	 158.68	 0.00	 0.00	 0.00	-10.36	 19.19	 0.00	-24.25	-57.28	-23.86	
 55.33	 47.71	-96.58	 101.63	-7.40	-112.94	 56.66	-64.95	 54.01	 5.04	-12.08	-20.94	-4.33	 27.51	 3.92	-18.64	 29.69	 9.49	-0.77	 31.56	 5.67	-7.44	 16.36	 4.99	-45.83	 10.89	 31.86	-7.61	 0.00	-2.03	 63.69	 12.25	 89.65	 1.33	-15.70	 29.36	 0.00	 0.00	 0.00	-28.74	 0.00	-2.78	-94.30	-11.65	-62.08	 179.90	-79.88	 156.64	 0.00	 0.00	 0.00	-9.22	 17.73	 0.00	-25.33	-56.58	-28.21	
 53.70	 49.36	-97.03	 108.25	 0.84	-108.11	 45.22	-61.83	 41.62	 5.80	-10.79	-16.36	-4.25	 25.49	 3.75	-19.62	 25.38	 8.69	-3.02	 32.78	 0.00	-7.26	 10.66	 4.23	-41.81	 12.48	 30.04	-7.34	 0.00	-3.51	 64.31	 6.71	 88.63	 1.22	-15.88	 28.63	 0.00	 0.00	 0.00	-27.30	 0.00	 0.40	-86.36	-1.97	-56.36	 179.05	-82.51	 154.51	 0.00	 0.00	 0.00	-7.78	 16.56	 0.00	-26.09	-56.05	-31.63	
 51.99	 50.54	-97.49	 113.86	 9.71	-104.19	 36.88	-53.86	 31.21	 7.63	-9.20	-8.39	-4.11	 21.07	 3.40	-19.43	 19.18	 6.61	-3.06	 33.09	-6.93	-7.18	 6.42	 3.69	-37.52	 14.66	 25.89	-6.15	 0.00	-4.60	 66.96	 1.51	 87.48	 0.64	-16.11	 26.22	 0.00	 0.00	 0.00	-23.85	 0.00	 2.28	-78.36	 2.88	-53.97	-179.07	-86.88	 155.84	 0.00	 0.00	 0.00	-6.10	 15.59	 0.00	-26.33	-55.63	-33.88	
 50.42	 51.22	-97.94	 119.47	 19.26	-99.68	 33.77	-43.99	 24.91	 8.62	-7.88	 0.76	-4.02	 17.23	 3.11	-17.80	 12.24	 3.90	-0.90	 31.91	-15.07	-7.15	 3.62	 3.34	-31.09	 17.08	 18.21	-4.08	 0.00	-5.23	 71.51	-2.98	 88.31	 0.01	-16.27	 23.70	 0.00	 0.00	 0.00	-19.46	 0.00	 4.04	-70.91	 4.28	-51.91	-0.22	-87.72	-25.42	 0.00	 0.00	 0.00	-4.23	 14.68	 0.00	-26.14	-55.28	-35.01	
 49.11	 51.40	-98.30	 124.32	 28.90	-94.11	 33.63	-33.74	 20.28	 8.79	-5.35	 5.01	-3.99	 15.72	 3.00	-16.21	 5.22	 1.52	 1.04	 30.84	-22.65	-7.14	 1.42	 3.06	-22.85	 20.05	 8.34	-0.88	 0.00	-5.49	 77.04	-7.41	 92.13	-0.17	-16.27	 23.13	 0.00	 0.00	 0.00	-13.61	 0.00	 8.08	-70.74	 14.60	-52.49	 11.70	-82.24	-13.84	 0.00	 0.00	 0.00	-2.26	 13.76	 0.00	-25.72	-55.04	-35.19	
 48.11	 51.13	-98.49	 127.94	 37.14	-88.58	 34.23	-22.18	 14.41	 8.94	-2.03	 5.94	-3.99	 16.04	 3.02	-17.26	-2.42	-0.75	 0.79	 31.62	-25.24	-7.14	-0.42	 2.83	-14.90	 23.01	-1.91	 3.38	 0.00	-5.23	 83.64	-11.88	 98.54	 0.04	-16.16	 24.25	 0.00	 0.00	 0.00	-9.07	 0.00	 10.60	-62.11	 13.52	-50.83	-0.32	-75.78	-25.85	 0.00	 0.00	 0.00	-0.30	 12.79	 0.00	-25.17	-55.02	-34.64	
 47.53	 50.61	-98.48	 131.71	 43.87	-85.43	 34.86	-9.02	 6.24	 9.28	 1.72	 7.19	-4.02	 17.19	 3.11	-21.95	-11.67	-4.66	-1.84	 34.14	-21.56	-7.15	-2.67	 2.55	-7.64	 24.66	-11.34	 8.33	 0.00	-4.55	 91.62	-15.14	 106.14	 0.34	-16.21	 25.54	 0.00	 0.00	 0.00	-3.68	 0.00	 15.39	-58.12	 18.34	-52.67	-1.10	-68.11	-26.66	 0.00	 0.00	 0.00	 1.57	 11.72	 0.00	-24.45	-55.32	-33.67	
 47.43	 50.08	-98.45	 137.72	 50.36	-86.36	 35.11	 4.23	-2.97	 9.18	 6.84	 9.22	-4.04	 18.28	 3.19	-29.76	-22.30	-12.24	-5.92	 35.52	-15.94	-7.17	-5.76	 2.16	 0.14	 24.01	-19.74	 14.25	 0.00	-3.52	 99.84	-16.23	 112.72	 0.57	-16.66	 25.95	 0.00	 0.00	 0.00	 0.38	 0.00	 18.81	-56.03	 26.93	-56.13	-0.29	-59.98	-25.98	 0.00	 0.00	 0.00	 3.32	 10.65	 0.00	-23.56	-56.18	-32.63	
 47.66	 49.58	-98.64	 148.42	 57.41	-92.02	 34.37	 15.37	-10.27	 7.50	 13.78	 11.32	-4.04	 18.30	 3.19	-40.80	-31.57	-24.32	-8.66	 32.55	-13.93	-7.22	-8.63	 1.80	 9.18	 20.75	-27.44	 21.73	 0.00	-1.83	 106.39	-16.09	 116.93	 0.44	-17.98	 23.81	 0.00	 0.00	 0.00	 1.15	 0.00	 13.35	-48.05	 9.96	-52.31	-4.43	-47.53	-30.37	 0.00	 0.00	 0.00	 5.10	 9.84	 0.00	-22.82	-57.55	-31.96	
 47.95	 48.93	-99.15	 167.35	 64.48	-105.30	 32.02	 23.83	-14.18	 4.21	 21.01	 15.87	-4.02	 17.44	 3.12	-54.06	-36.32	-39.25	-9.04	 25.04	-15.22	-7.25	-10.19	 1.59	 18.87	 15.51	-33.76	 29.98	 0.00	 0.85	 111.16	-17.26	 119.96	-0.33	-20.91	 18.36	 0.00	 0.00	 0.00	 4.28	 0.00	 13.05	-48.28	 15.48	-57.75	-0.38	-39.19	-25.31	 0.00	 0.00	 0.00	 7.21	 9.43	 0.00	-22.96	-58.78	-32.00	
 48.05	 47.88	-99.86	-159.09	 69.07	-133.84	 27.22	 29.78	-14.33	-0.49	 26.62	 24.26	-4.01	 16.80	 3.08	-65.33	-36.97	-52.62	-8.68	 16.33	-16.75	-7.26	-10.27	 1.58	 28.72	 9.80	-36.73	 36.49	 0.00	 4.80	 118.25	-22.07	 124.73	-1.70	-25.90	 11.41	 0.00	 0.00	 0.00	 7.75	 0.00	 13.02	-46.90	 20.00	-60.37	 0.28	-32.36	-24.55	 0.00	 0.00	 0.00	 9.76	 9.40	 0.00	-24.54	-58.96	-32.69	
 47.75	 46.31	-100.65	-116.74	 65.46	-173.07	 19.84	 31.23	-10.60	-6.68	 30.74	 34.54	-4.00	 16.35	 3.04	-71.54	-36.61	-60.75	-7.89	 11.11	-18.90	-7.24	-9.42	 1.69	 38.36	 5.48	-35.38	 40.71	 0.00	 9.80	 133.62	-32.58	 134.93	-3.50	-32.79	 5.03	 0.00	 0.00	 0.00	 11.51	 0.00	 11.71	-44.41	 23.23	-63.02	 0.40	-26.84	-24.53	 0.00	 0.00	 0.00	 12.91	 9.57	 0.00	-28.07	-57.37	-33.96	
 46.99	 44.22	-101.44	-88.97	 53.66	 160.39	 13.01	 26.81	-5.95	-14.62	 34.05	 44.32	-3.98	 15.24	 2.96	-71.36	-37.31	-60.90	-5.02	 10.92	-24.31	-7.25	-10.04	 1.61	 46.44	 4.49	-30.08	 46.09	 0.00	 10.23	 159.29	-46.35	 148.75	 1.41	-39.65	 11.03	 0.00	 0.00	 0.00	 15.26	 0.00	 7.25	-41.85	 23.93	-64.83	 0.32	-21.96	-25.11	 0.00	 0.00	 0.00	 15.73	 10.40	 0.00	-32.23	-54.88	-35.42	
 45.91	 41.81	-102.37	-71.91	 42.70	 146.86	 9.40	 21.17	-3.42	-21.31	 37.82	 49.78	-3.94	 12.96	 2.80	-65.63	-36.08	-52.44	 1.81	 13.92	-33.42	-7.36	-14.17	 1.07	 50.67	 7.15	-26.53	 53.37	 0.00	-1.59	 161.79	-51.18	 144.41	 4.01	-43.13	 13.62	 0.00	 0.00	 0.00	 17.71	 0.00	 0.77	-38.63	 22.41	-65.72	 0.13	-18.03	-26.78	 0.00	 0.00	 0.00	 17.18	 11.92	 0.00	-35.06	-51.89	-35.63	
 44.53	 39.44	-103.10	-57.18	 35.28	 141.01	 8.26	 17.17	-2.45	-25.02	 42.10	 50.91	-3.90	 10.33	 2.62	-57.76	-32.97	-40.79	 10.26	 18.24	-46.10	-7.59	-19.80	 0.30	 53.11	 11.79	-29.24	 58.55	 0.00	-21.31	 135.84	-41.92	 118.03	 1.74	-42.19	 10.95	 0.00	 0.00	 0.00	 18.25	 0.00	-3.40	-34.44	 21.00	-65.95	-0.10	-15.77	-28.90	 0.00	 0.00	 0.00	 16.40	 14.09	 0.00	-35.28	-48.87	-33.32	
 42.85	 37.41	-103.29	-45.43	 30.64	 142.69	 7.78	 13.91	-1.88	-25.88	 44.99	 49.58	-3.88	 8.63	 2.50	-52.95	-29.45	-33.07	 17.62	 23.50	-60.46	-7.82	-24.01	-0.31	 54.13	 15.75	-37.71	 54.31	 0.00	-32.07	 116.95	-27.17	 104.71	-2.80	-41.31	 4.73	 0.00	 0.00	 0.00	 18.10	 0.00	-3.20	-31.77	 21.63	-64.77	-0.23	-15.20	-29.73	 0.00	 0.00	 0.00	 13.51	 16.73	 0.00	-33.37	-46.05	-28.49	
 40.98	 35.85	-102.76	-38.40	 26.55	 149.88	 7.09	 9.19	-1.14	-27.18	 45.02	 50.86	-3.87	 7.90	 2.45	-51.54	-27.63	-30.28	 22.47	 27.64	-73.83	-7.97	-26.28	-0.66	 52.68	 17.82	-44.96	 43.92	 0.00	-28.77	 112.72	-34.17	 93.13	 0.23	-40.97	 9.45	 0.00	 0.00	 0.00	 17.92	 0.00	 0.37	-31.99	 23.55	-64.27	-0.19	-15.51	-28.65	 0.00	 0.00	 0.00	 9.24	 19.46	 0.00	-30.58	-43.56	-22.19	
 39.06	 34.80	-101.57	-34.24	 20.88	 158.34	 6.66	 2.25	-0.26	-31.94	 43.31	 58.07	-3.86	 6.63	 2.36	-51.28	-28.78	-30.98	 24.04	 30.27	-83.43	-8.02	-27.00	-0.78	 49.48	 18.88	-46.52	 36.06	 0.00	-20.56	 112.27	-40.79	 84.76	 1.92	-40.23	 12.16	 0.00	 0.00	 0.00	 16.84	 0.00	 4.64	-33.30	 25.03	-66.51	-0.11	-15.39	-26.48	 0.00	 0.00	 0.00	 4.32	 22.16	 0.00	-27.78	-41.53	-15.42	
 37.24	 34.23	-99.89	-29.96	 13.54	 165.39	 7.49	-6.36	 0.83	-38.65	 41.90	 68.67	-3.85	 3.57	 2.16	-50.72	-32.27	-33.14	 23.46	 31.90	-88.10	-7.98	-26.46	-0.69	 46.13	 19.86	-41.97	 32.35	 0.00	-12.98	 112.84	-40.41	 82.49	 0.76	-37.72	 11.33	 0.00	 0.00	 0.00	 14.58	 0.00	 7.02	-34.56	 24.21	-71.26	-0.05	-14.09	-23.99	 0.00	 0.00	 0.00	-0.71	 24.66	 0.00	-25.30	-39.94	-8.56	
 35.92	 33.81	-98.26	-25.06	 8.56	 173.68	 8.93	-13.27	 2.07	-42.73	 43.51	 74.96	-3.84	-1.07	 1.84	-49.56	-32.59	-32.30	 22.32	 31.39	-87.25	-7.83	-24.17	-0.34	 42.50	 21.11	-37.39	 31.06	 0.00	-6.70	 112.36	-36.04	 84.16	-0.69	-33.78	 10.52	 0.00	 0.00	 0.00	 11.76	 0.00	 6.74	-36.99	 21.76	-77.69	 0.04	-12.38	-20.96	 0.00	 0.00	 0.00	-5.50	 27.05	 0.00	-23.11	-39.06	-1.92	
 35.14	 33.48	-96.80	-20.30	 5.47	-177.00	 10.81	-19.43	 3.64	-43.22	 47.74	 74.12	-3.85	-5.34	 1.56	-47.96	-31.94	-30.40	 18.77	 32.16	-76.89	-7.52	-18.29	 0.51	 38.46	 22.88	-33.92	 30.63	 0.00	-0.58	 111.12	-31.47	 88.87	-0.80	-29.53	 12.19	 0.00	 0.00	 0.00	 8.64	 0.00	 4.06	-40.86	 18.34	-86.30	 0.00	-10.52	-16.79	 0.00	 0.00	 0.00	-9.74	 29.32	 0.00	-20.97	-39.03	 4.19	
 34.81	 33.21	-95.56	-16.01	 3.00	-167.26	 12.93	-26.06	 5.76	-41.01	 52.57	 67.50	-3.87	-7.69	 1.40	-46.65	-32.58	-29.70	 12.42	 36.31	-57.46	-7.23	-9.12	 1.73	 33.67	 25.01	-31.13	 30.28	 0.00	 5.68	 109.35	-28.03	 95.06	-0.30	-25.71	 15.37	 0.00	 0.00	 0.00	 5.43	 0.00	-0.38	-46.42	 14.60	-95.70	-0.87	-7.81	-13.05	 0.00	 0.00	 0.00	-13.21	 31.41	 0.00	-18.58	-39.82	 9.61	
 34.88	 32.91	-94.68	-12.05	 0.79	-157.20	 14.71	-32.76	 8.09	-37.34	 55.98	 58.87	-3.89	-9.01	 1.31	-45.80	-34.49	-30.22	 4.70	 43.54	-32.67	-7.14	-1.28	 2.72	 28.01	 27.45	-28.90	 29.59	 0.00	 11.20	 106.63	-25.38	 101.22	-0.18	-22.70	 17.85	 0.00	 0.00	 0.00	 2.28	 0.00	-5.32	-54.06	 11.67	-101.52	-2.82	-5.24	-13.61	 0.00	 0.00	 0.00	-15.95	 33.25	 0.00	-15.53	-41.34	 14.43	
 35.25	 32.58	-94.21	-7.85	-0.97	-146.54	 15.89	-39.36	 10.24	-32.67	 57.88	 49.80	-3.90	-10.08	 1.23	-44.50	-36.41	-30.25	-2.31	 52.37	-10.51	-7.14	 1.01	 3.01	 22.23	 30.09	-27.65	 28.19	 0.00	 14.86	 103.43	-23.22	 106.58	-0.33	-20.56	 19.35	 0.00	 0.00	 0.00	-1.19	 0.00	-9.29	-63.42	 10.22	-95.90	-5.04	-3.45	-23.38	 0.00	 0.00	 0.00	-18.24	 34.73	 0.00	-11.51	-43.37	 18.83	
